<mxfile host="app.diagrams.net" modified="2022-02-22T11:39:30.834Z" agent="5.0 (Macintosh; Intel Mac OS X 10_15_7) AppleWebKit/537.36 (KHTML, like Gecko) Chrome/98.0.4758.102 Safari/537.36" etag="Vg8NaydR-GnFGE5RMVU2" version="16.6.2" type="github">
  <diagram id="eb_H6o_Z9aRTCy94TlLp" name="Page-1">
    <mxGraphModel dx="946" dy="621" grid="1" gridSize="10" guides="1" tooltips="1" connect="1" arrows="1" fold="1" page="1" pageScale="1" pageWidth="827" pageHeight="1169" math="0" shadow="0">
      <root>
        <mxCell id="0" />
        <mxCell id="1" parent="0" />
        <mxCell id="u9iZ2-dE1JxDBq7BXTft-1" value="" style="whiteSpace=wrap;html=1;aspect=fixed;" vertex="1" parent="1">
          <mxGeometry x="60" y="170" width="170" height="170" as="geometry" />
        </mxCell>
        <mxCell id="u9iZ2-dE1JxDBq7BXTft-2" value="gitlab" style="shape=cylinder3;whiteSpace=wrap;html=1;boundedLbl=1;backgroundOutline=1;size=15;" vertex="1" parent="1">
          <mxGeometry x="470" y="65" width="60" height="80" as="geometry" />
        </mxCell>
        <mxCell id="u9iZ2-dE1JxDBq7BXTft-3" value="chartmuseum&lt;br&gt;(chart 库)" style="shape=cylinder3;whiteSpace=wrap;html=1;boundedLbl=1;backgroundOutline=1;size=15;" vertex="1" parent="1">
          <mxGeometry x="354" y="190" width="86" height="110" as="geometry" />
        </mxCell>
        <mxCell id="u9iZ2-dE1JxDBq7BXTft-4" value="harb&lt;br&gt;(docker image&lt;br&gt;&amp;nbsp;库)" style="shape=cylinder3;whiteSpace=wrap;html=1;boundedLbl=1;backgroundOutline=1;size=15;" vertex="1" parent="1">
          <mxGeometry x="550" y="190" width="86" height="110" as="geometry" />
        </mxCell>
        <mxCell id="u9iZ2-dE1JxDBq7BXTft-5" value="helm client" style="rounded=1;whiteSpace=wrap;html=1;" vertex="1" parent="1">
          <mxGeometry x="100" y="270" width="70" height="30" as="geometry" />
        </mxCell>
        <mxCell id="u9iZ2-dE1JxDBq7BXTft-6" value="local" style="text;html=1;strokeColor=none;fillColor=none;align=center;verticalAlign=middle;whiteSpace=wrap;rounded=0;" vertex="1" parent="1">
          <mxGeometry x="60" y="170" width="60" height="30" as="geometry" />
        </mxCell>
      </root>
    </mxGraphModel>
  </diagram>
</mxfile>
